<?xml version="1.0" encoding="UTF-8"?>
<svg width="54px" height="54px" viewBox="0 0 54 54" version="1.1" xmlns="http://www.w3.org/2000/svg" xmlns:xlink="http://www.w3.org/1999/xlink">
    <!-- Generator: Sketch 44.1 (41455) - http://www.bohemiancoding.com/sketch -->
    <title>behance-icon</title>
    <desc>Created with Sketch.</desc>
    <defs></defs>
    <g id="Assets" stroke="none" stroke-width="1" fill="none" fill-rule="evenodd">
        <g id="Artboard" transform="translate(-111.000000, -108.000000)" fill-rule="nonzero" fill="#115EFB">
            <g id="Behance" transform="translate(111.000000, 108.000000)">
                <path d="M48.7658729,14.8114262 L35.2354624,14.8114262 L35.2354624,11.4105369 L48.7670028,11.4105369 L48.7670028,14.8114262 L48.7658729,14.8114262 L48.7658729,14.8114262 Z M26.2279525,28.757359 C27.1009956,30.1257183 27.5372661,31.7871614 27.5372661,33.7377499 C27.5372661,35.7549079 27.045379,37.5644808 26.0446561,39.1629115 C25.4080151,40.2206554 24.6175809,41.1141352 23.6678295,41.8334417 C22.5981822,42.6653066 21.3318052,43.235721 19.8759801,43.5404925 C18.4155098,43.8457721 16.834767,44 15.1319939,44 L0,44 L0,10 L16.2267503,10 C20.3168957,10.0673318 23.2166192,11.2664724 24.9289337,13.6214326 C25.9563977,15.0657624 26.4654845,16.7988566 26.4654845,18.8133468 C26.4654845,20.8919927 25.9502459,22.5552143 24.9127383,23.8188918 C24.3356058,24.5273998 23.4830266,25.1718791 22.354373,25.7536001 C24.0639255,26.3868998 25.3610611,27.3841722 26.2279525,28.757359 Z M7.74891669,23.4044838 L14.858807,23.4044838 C16.319905,23.4044838 17.5010367,23.123469 18.4107391,22.5616934 C19.3198137,22.0008071 19.7734095,21.0037888 19.7734095,19.5722901 C19.7734095,17.9907559 19.1728,16.9410156 17.9686935,16.4357733 C16.9336968,16.0847588 15.6094433,15.9039794 14.002587,15.9039794 L7.74891669,15.9039794 L7.74891669,23.4044838 Z M20.4580088,33.2520719 C20.4580088,31.485947 19.7446596,30.2649553 18.3208485,29.6098046 C17.5246392,29.2374472 16.4012585,29.0471397 14.9608755,29.0335463 L7.74891669,29.0335463 L7.74891669,38.0943691 L14.8492656,38.0943691 C16.3079782,38.0943691 17.4370085,37.9011396 18.2517985,37.4980383 C19.7211826,36.7568808 20.4580088,35.3463438 20.4580088,33.2520719 Z M53.7860591,27.720831 C53.9495193,28.8332026 54.0234656,30.4471322 53.9934602,32.5566491 L36.4700764,32.5566491 C36.5667464,35.0042222 37.4017493,36.7158465 38.9853796,37.6953331 C39.9404039,38.3095767 41.0983097,38.6095206 42.4542006,38.6095206 C43.8839123,38.6095206 45.0492252,38.2437694 45.9462475,37.4919404 C46.434996,37.0934125 46.8661191,36.5308747 47.2388635,35.8210963 L53.6617691,35.8210963 C53.4935382,37.2666966 52.7201782,38.7328775 51.33039,40.2228151 C49.1771598,42.5909876 46.1572894,43.7784404 42.2789392,43.7784404 C39.0750191,43.7784404 36.2513762,42.7769757 33.8004778,40.7812876 C31.3577399,38.7786123 30.1309097,35.5306804 30.1309097,31.0251691 C30.1309097,26.8001644 31.23232,23.5663341 33.4425477,21.3154205 C35.6609359,19.0603146 38.5238745,17.9379068 42.0528318,17.9379068 C44.1445447,17.9379068 46.0301119,18.3162351 47.7122954,19.07683 C49.3892061,19.838187 50.7751024,21.0364384 51.8665946,22.6832717 C52.8543863,24.1335725 53.4896463,25.8105145 53.7860591,27.720831 Z M47.4639665,28.3552741 C47.3462049,26.662833 46.7877787,25.381878 45.7822851,24.506438 C44.7850776,23.6285842 43.53929,23.1878788 42.0528318,23.1878788 C40.435053,23.1878788 39.1858757,23.6589471 38.2982694,24.5848223 C37.4046368,25.508792 36.848596,26.764974 36.620731,28.3554011 L47.4639665,28.3554011 L47.4639665,28.3552741 Z"></path>
            </g>
        </g>
    </g>
</svg>